
<?xml version="1.0" encoding="UTF-8"?>
<svg width="927px" height="154px" viewBox="0 0 927 154" version="1.1" xmlns="http://www.w3.org/2000/svg" xmlns:xlink="http://www.w3.org/1999/xlink">
    <!-- Generator: Sketch 61 (89581) - https://sketch.com -->
    <title>Gemo</title>
    <desc>Created with Sketch.</desc>
    <g id="Gemography-Logo" stroke="none" stroke-width="1" fill="none" fill-rule="evenodd">
        <g id="1" transform="translate(-240.000000, -627.000000)">
            <g id="Gemo" transform="translate(240.000000, 627.000000)">
                <path d="M0,76.8000031 L76.8000031,76.8000031 L76.8000031,0 C34.3845014,0 0,34.3845014 0,76.8000031" id="Fill-1" fill="#614FE7"></path>
                <path d="M76.8000031,28.8000011 L76.8000031,76.8000011 L124.800003,76.8000011 C124.800003,50.290502 103.309504,28.8000011 76.8000031,28.8000011" id="Fill-3" fill="#8E82EE"></path>
                <path d="M153.600006,76.8000031 L76.8000031,76.8000031 L76.8000031,153.600006 C119.215505,153.600006 153.600006,119.215505 153.600006,76.8000031" id="Fill-5" fill="#614FE7"></path>
                <path d="M76.8000031,153.600006 L76.8000031,76.8000031 L0,76.8000031 C0,119.215505 34.3845014,153.600006 76.8000031,153.600006" id="Fill-7" fill="#4D3BD8"></path>
                <path d="M215.235639,89.5344636 C218.370339,92.5440637 222.132339,94.0488637 226.647039,94.0488637 C231.286839,94.0488637 235.174239,92.5440637 238.308939,89.5344636 C241.56934,86.5248634 243.19984,82.8882633 243.19984,78.4992631 C243.19984,74.1102629 241.56934,70.3482628 238.308939,67.3386627 C235.174239,64.2036626 231.286839,62.6988625 226.647039,62.6988625 C222.132339,62.6988625 218.370339,64.2036626 215.235639,67.3386627 C212.100638,70.3482628 210.595838,74.1102629 210.595838,78.4992631 C210.595838,82.8882633 212.100638,86.5248634 215.235639,89.5344636 M200.814638,55.3002622 C206.833838,48.9048619 214.357539,45.7698618 223.261239,45.7698618 C232.791639,45.7698618 240.19024,49.657262 242.07094,55.1748622 L242.07094,46.8984619 L260.75554,46.8984619 L260.75554,99.566164 C260.75554,114.238265 258.37294,123.768365 249.72034,130.414865 C243.57604,135.305165 235.926639,137.688065 226.772439,137.688065 C214.482939,137.688065 204.200438,134.678165 195.798638,128.784665 L204.702038,115.241165 C211.097438,119.253965 217.492539,121.260665 224.139039,121.260665 C229.530939,121.260665 233.919939,120.131765 237.054939,118.000265 C240.69184,115.491965 242.57284,110.852464 242.57284,104.206264 L242.57284,102.826864 C239.93944,107.340964 232.415439,110.476264 223.261239,110.476264 C214.357539,110.476264 206.833838,107.466364 200.814638,101.322064 C194.920838,95.1774638 191.911238,87.5280635 191.911238,78.4992631 C191.911238,69.3450628 194.920838,61.5702624 200.814638,55.3002622" id="Fill-9" fill="#614FE7"></path>
                <path d="M315.429223,71.2259728 C315.429223,65.3321726 309.284622,60.6926724 301.760322,60.6926724 C293.609622,60.6926724 286.963421,65.3321726 286.461821,71.2259728 L315.429223,71.2259728 Z M267.526421,78.3737731 C267.526421,68.4674727 270.786821,60.4418724 277.182221,54.4223722 C283.577621,48.2780719 291.854022,45.2684718 301.760322,45.2684718 C311.416422,45.2684718 319.191223,48.4034719 325.210423,54.5477722 C331.229623,60.6926724 334.239223,68.2166727 334.239223,77.3705731 C334.239223,79.5023732 334.113523,81.5087732 333.988123,83.3897733 L286.211021,83.3897733 C286.587221,90.9137736 293.108022,95.8043738 303.014622,95.8043738 C308.908422,95.8043738 314.049522,93.7979737 318.438823,89.6597736 L329.348323,100.068274 C321.949723,107.717374 312.795822,111.604774 302.136822,111.604774 C291.728622,111.604774 283.452221,108.595174 277.056821,102.701374 C270.661421,96.6821738 267.526421,88.7822735 267.526421,78.8753731 L267.526421,78.3737731 Z" id="Fill-11" fill="#614FE7"></path>
                <path d="M340.885844,110.100004 L340.885844,46.8984019 L359.570144,46.8984019 L359.570144,54.7986022 C361.953044,49.281302 368.348145,45.5190018 375.997545,45.5190018 C384.524745,45.5190018 390.293146,48.9051019 393.177646,55.5510022 C396.688546,48.9051019 403.710946,45.5190018 414.244546,45.5190018 C428.665547,45.5190018 436.691147,55.3002022 436.691147,71.7276029 L436.691147,110.100004 L418.006547,110.100004 L418.006547,73.9848029 C418.006547,66.5862026 414.620746,62.0718025 408.601546,62.0718025 C402.456946,62.0718025 398.067946,67.2132027 398.067946,74.611803 L398.067946,110.100004 L379.383345,110.100004 L379.383345,73.9848029 C379.383345,66.5862026 375.997545,62.0718025 369.978645,62.0718025 C363.959144,62.0718025 359.570144,67.2132027 359.570144,74.611803 L359.570144,110.100004 L340.885844,110.100004 Z" id="Fill-13" fill="#614FE7"></path>
                <path d="M466.661149,90.2868336 C469.795849,93.4218337 473.683249,95.0520338 478.323349,95.0520338 C482.963149,95.0520338 486.850549,93.4218337 489.985549,90.2868336 C493.12025,87.0264335 494.75075,83.1390333 494.75075,78.4992331 C494.75075,73.8594329 493.12025,69.9720328 489.985549,66.8370327 C486.850549,63.5766325 482.963149,61.9464325 478.323349,61.9464325 C473.683249,61.9464325 469.795849,63.5766325 466.661149,66.8370327 C463.526148,69.9720328 461.895948,73.8594329 461.895948,78.4992331 C461.895948,83.1390333 463.526148,87.1518335 466.661149,90.2868336 M503.15255,54.7986322 C510.04955,61.1940324 513.43505,69.0942327 513.43505,78.4992331 C513.43505,87.9042335 510.04955,95.8044338 503.15255,102.325234 C496.25525,108.720634 487.979149,111.980734 478.323349,111.980734 C468.542149,111.980734 460.265748,108.720634 453.368448,102.325234 C446.597148,95.8044338 443.211348,87.9042335 443.211348,78.4992331 C443.211348,69.0942327 446.597148,61.1940324 453.368448,54.7986322 C460.265748,48.2781319 468.542149,45.0177318 478.323349,45.0177318 C487.979149,45.0177318 496.25525,48.2781319 503.15255,54.7986322" id="Fill-15" fill="#614FE7"></path>
                <path d="M541.148452,89.5344636 C544.283152,92.5440637 548.045152,94.0488637 552.559852,94.0488637 C557.199652,94.0488637 561.087052,92.5440637 564.221752,89.5344636 C567.482153,86.5248634 569.112653,82.8882633 569.112653,78.4992631 C569.112653,74.1102629 567.482153,70.3482628 564.221752,67.3386627 C561.087052,64.2036626 557.199652,62.6988625 552.559852,62.6988625 C548.045152,62.6988625 544.283152,64.2036626 541.148452,67.3386627 C538.013451,70.3482628 536.508651,74.1102629 536.508651,78.4992631 C536.508651,82.8882633 538.013451,86.5248634 541.148452,89.5344636 M526.727451,55.3002622 C532.746651,48.9048619 540.270351,45.7698618 549.174052,45.7698618 C558.704452,45.7698618 566.103052,49.657262 567.983753,55.1748622 L567.983753,46.8984619 L586.668353,46.8984619 L586.668353,99.566164 C586.668353,114.238265 584.285753,123.768365 575.633153,130.414865 C569.488853,135.305165 561.839452,137.688065 552.685252,137.688065 C540.396051,137.688065 530.113251,134.678165 521.711451,128.784665 L530.614851,115.241165 C537.010251,119.253965 543.405352,121.260665 550.051852,121.260665 C555.443752,121.260665 559.832752,120.131765 562.967752,118.000265 C566.604653,115.491965 568.485353,110.852464 568.485353,104.206264 L568.485353,102.826864 C565.852252,107.340964 558.328252,110.476264 549.174052,110.476264 C540.270351,110.476264 532.746651,107.466364 526.727451,101.322064 C520.833651,95.1774638 517.824051,87.5280635 517.824051,78.4992631 C517.824051,69.3450628 520.833651,61.5702624 526.727451,55.3002622" id="Fill-17" fill="#614FE7"></path>
                <path d="M596.198454,110.100004 L596.198454,46.8984019 L614.882754,46.8984019 L614.882754,55.5510022 C617.767255,49.155902 624.538855,45.5190018 633.191455,45.5190018 C634.445155,45.5190018 636.075655,45.6444018 638.081755,45.8952018 L638.081755,63.4512025 C636.201055,63.0750025 634.068955,62.8242025 631.811755,62.8242025 C621.153055,62.8242025 614.882754,68.8437027 614.882754,79.2516031 L614.882754,110.100004 L596.198454,110.100004 Z" id="Fill-19" fill="#614FE7"></path>
                <path d="M685.357947,89.7852636 C688.618347,86.6502634 690.248847,82.8882633 690.248847,78.4992631 C690.248847,74.1102629 688.618347,70.3482628 685.357947,67.3386627 C682.223247,64.2039626 678.335847,62.6988625 673.696047,62.6988625 C669.181347,62.6988625 665.419346,64.2039626 662.284646,67.3386627 C659.149646,70.3482628 657.644846,74.1102629 657.644846,78.4992631 C657.644846,82.8882633 659.149646,86.6502634 662.284646,89.7852636 C665.419346,92.7948637 669.181347,94.2996637 673.696047,94.2996637 C678.335847,94.2996637 682.223247,92.7948637 685.357947,89.7852636 M689.119947,55.1748622 L689.119947,46.8984619 L707.804548,46.8984619 L707.804548,110.100064 L689.119947,110.100064 L689.119947,101.823664 C687.239247,107.341264 679.840347,111.228664 670.310247,111.228664 C661.406546,111.228664 653.882846,108.093664 647.863646,101.823664 C641.969846,95.4282638 638.960245,87.6534635 638.960245,78.4992631 C638.960245,69.3450628 641.969846,61.5702624 647.863646,55.3002622 C653.882846,48.9048619 661.406546,45.7698618 670.310247,45.7698618 C679.840347,45.7698618 687.239247,49.657262 689.119947,55.1748622" id="Fill-21" fill="#614FE7"></path>
                <path d="M763.10511,89.7852636 C766.24011,86.6502634 767.744911,82.8882633 767.744911,78.4992631 C767.744911,74.1102629 766.24011,70.3482628 763.10511,67.3386627 C759.97011,64.2039626 756.20811,62.6988625 751.69371,62.6988625 C747.05391,62.6988625 743.16651,64.2039626 739.906109,67.3386627 C736.771109,70.3482628 735.140909,74.1102629 735.140909,78.4992631 C735.140909,82.8882633 736.771109,86.6502634 739.906109,89.7852636 C743.16651,92.7948637 747.05391,94.2996637 751.69371,94.2996637 C756.20811,94.2996637 759.97011,92.7948637 763.10511,89.7852636 L763.10511,89.7852636 Z M717.585209,134.302265 L717.585209,46.8984619 L736.269509,46.8984619 L736.269509,55.1748622 C738.150509,49.657262 745.54911,45.7698618 755.07951,45.7698618 C763.98291,45.7698618 771.506911,48.9048619 777.400411,55.3002622 C783.419911,61.5702624 786.429511,69.3450628 786.429511,78.4992631 C786.429511,87.6534635 783.419911,95.4282638 777.400411,101.823664 C771.506911,108.093664 763.98291,111.228664 755.07951,111.228664 C745.54911,111.228664 738.150509,107.341264 736.269509,101.823664 L736.269509,134.302265 L717.585209,134.302265 Z" id="Fill-23" fill="#614FE7"></path>
                <path d="M793.451402,110.100004 L793.451402,22.6962009 L812.135702,22.6962009 L812.135702,54.5478022 C814.644002,49.0305019 821.415603,45.5190018 829.817403,45.5190018 C844.739704,45.5190018 853.266904,55.3002022 853.266904,71.7276029 L853.266904,110.100004 L834.582603,110.100004 L834.582603,73.9848029 C834.582603,66.5862026 830.695203,62.0718025 823.797903,62.0718025 C816.900902,62.0718025 812.135702,67.2132027 812.135702,74.611803 L812.135702,110.100004 L793.451402,110.100004 Z" id="Fill-25" fill="#614FE7"></path>
                <polygon id="Fill-27" fill="#614FE7" points="880.728845 111.228514 854.269444 46.8983119 873.706445 46.8983119 890.510045 89.0330135 907.564146 46.8983119 927.001147 46.8983119 889.757645 134.427515 870.571445 134.427515"></polygon>
            </g>
        </g>
    </g>
</svg>
