<svg width="927" height="154" xmlns="http://www.w3.org/2000/svg"><g fill="none" fill-rule="evenodd"><path d="M0 76.8h76.8V0C34.385 0 0 34.385 0 76.8" fill="#614FE7"/><path d="M76.8 28.8v48h48c0-26.51-21.49-48-48-48" fill="#8E82EE"/><path d="M153.6 76.8H76.8v76.8c42.416 0 76.8-34.384 76.8-76.8" fill="#614FE7"/><path d="M76.8 153.6V76.8H0c0 42.416 34.385 76.8 76.8 76.8" fill="#4D3BD8"/><path d="M215.236 89.534c3.134 3.01 6.896 4.515 11.411 4.515 4.64 0 8.527-1.505 11.662-4.515 3.26-3.01 4.89-6.646 4.89-11.035s-1.63-8.15-4.89-11.16c-3.135-3.135-7.022-4.64-11.662-4.64-4.515 0-8.277 1.505-11.411 4.64-3.135 3.01-4.64 6.771-4.64 11.16 0 4.39 1.505 8.026 4.64 11.035M200.815 55.3c6.019-6.395 13.543-9.53 22.446-9.53 9.53 0 16.93 3.887 18.81 9.405v-8.277h18.685v52.668c0 14.672-2.383 24.202-11.036 30.849-6.144 4.89-13.793 7.273-22.948 7.273-12.29 0-22.572-3.01-30.973-8.903l8.903-13.544c6.395 4.013 12.79 6.02 19.437 6.02 5.392 0 9.78-1.13 12.916-3.26 3.637-2.509 5.518-7.149 5.518-13.795v-1.38c-2.634 4.515-10.158 7.65-19.312 7.65-8.903 0-16.427-3.01-22.446-9.154-5.894-6.145-8.904-13.794-8.904-22.823 0-9.154 3.01-16.929 8.904-23.199M315.43 71.226c0-5.894-6.145-10.533-13.67-10.533-8.15 0-14.797 4.64-15.298 10.533h28.967zm-47.904 7.148c0-9.907 3.26-17.932 9.656-23.952 6.396-6.144 14.672-9.154 24.578-9.154 9.656 0 17.431 3.135 23.45 9.28 6.02 6.145 9.03 13.669 9.03 22.823 0 2.131-.126 4.138-.252 6.019h-47.777c.376 7.524 6.897 12.414 16.804 12.414 5.893 0 11.035-2.006 15.424-6.144l10.91 10.408c-7.4 7.65-16.553 11.537-27.212 11.537-10.408 0-18.685-3.01-25.08-8.904-6.396-6.019-9.53-13.919-9.53-23.826v-.501zM340.886 110.1V46.898h18.684v7.9c2.383-5.517 8.778-9.279 16.428-9.279 8.527 0 14.295 3.386 17.18 10.032 3.51-6.646 10.533-10.032 21.067-10.032 14.42 0 22.446 9.781 22.446 26.209V110.1h-18.684V73.985c0-7.399-3.386-11.913-9.405-11.913-6.145 0-10.534 5.141-10.534 12.54V110.1h-18.685V73.985c0-7.399-3.385-11.913-9.404-11.913-6.02 0-10.409 5.141-10.409 12.54V110.1h-18.684zM466.661 90.287c3.135 3.135 7.022 4.765 11.662 4.765 4.64 0 8.528-1.63 11.663-4.765 3.134-3.26 4.765-7.148 4.765-11.788 0-4.64-1.63-8.527-4.765-11.662-3.135-3.26-7.023-4.89-11.663-4.89-4.64 0-8.527 1.63-11.662 4.89-3.135 3.135-4.765 7.022-4.765 11.662 0 4.64 1.63 8.653 4.765 11.788m36.492-35.488c6.897 6.395 10.282 14.295 10.282 23.7s-3.385 17.305-10.282 23.826c-6.898 6.396-15.174 9.656-24.83 9.656-9.78 0-18.057-3.26-24.955-9.656-6.77-6.52-10.157-14.42-10.157-23.826 0-9.405 3.386-17.305 10.157-23.7 6.898-6.52 15.174-9.781 24.955-9.781 9.656 0 17.932 3.26 24.83 9.78M541.148 89.534c3.135 3.01 6.897 4.515 11.412 4.515 4.64 0 8.527-1.505 11.662-4.515 3.26-3.01 4.89-6.646 4.89-11.035s-1.63-8.15-4.89-11.16c-3.135-3.135-7.022-4.64-11.662-4.64-4.515 0-8.277 1.505-11.412 4.64-3.135 3.01-4.64 6.771-4.64 11.16 0 4.39 1.505 8.026 4.64 11.035M526.728 55.3c6.019-6.395 13.542-9.53 22.446-9.53 9.53 0 16.93 3.887 18.81 9.405v-8.277h18.684v52.668c0 14.672-2.382 24.202-11.035 30.849-6.144 4.89-13.794 7.273-22.948 7.273-12.289 0-22.572-3.01-30.974-8.903l8.904-13.544c6.395 4.013 12.79 6.02 19.437 6.02 5.392 0 9.78-1.13 12.916-3.26 3.637-2.509 5.517-7.149 5.517-13.795v-1.38c-2.633 4.515-10.157 7.65-19.31 7.65-8.905 0-16.428-3.01-22.448-9.154-5.893-6.145-8.903-13.794-8.903-22.823 0-9.154 3.01-16.929 8.903-23.199M596.198 110.1V46.898h18.685v8.653c2.884-6.395 9.656-10.032 18.308-10.032 1.254 0 2.885.125 4.89.376v17.556a32.166 32.166 0 00-6.27-.627c-10.658 0-16.928 6.02-16.928 16.428V110.1h-18.685zM685.358 89.785c3.26-3.135 4.89-6.897 4.89-11.286 0-4.389-1.63-8.15-4.89-11.16-3.135-3.135-7.022-4.64-11.662-4.64-4.515 0-8.277 1.505-11.411 4.64-3.135 3.01-4.64 6.771-4.64 11.16 0 4.39 1.505 8.151 4.64 11.286 3.134 3.01 6.896 4.515 11.411 4.515 4.64 0 8.527-1.505 11.662-4.515m3.762-34.61v-8.277h18.685V110.1H689.12v-8.276c-1.88 5.517-9.28 9.405-18.81 9.405-8.903 0-16.427-3.135-22.446-9.405-5.894-6.396-8.904-14.17-8.904-23.325 0-9.154 3.01-16.929 8.904-23.199 6.019-6.395 13.543-9.53 22.446-9.53 9.53 0 16.93 3.887 18.81 9.405M763.105 89.785c3.135-3.135 4.64-6.897 4.64-11.286 0-4.389-1.505-8.15-4.64-11.16-3.135-3.135-6.897-4.64-11.411-4.64-4.64 0-8.527 1.505-11.788 4.64-3.135 3.01-4.765 6.771-4.765 11.16 0 4.39 1.63 8.151 4.765 11.286 3.26 3.01 7.148 4.515 11.788 4.515 4.514 0 8.276-1.505 11.411-4.515zm-45.52 44.517V46.898h18.685v8.277c1.88-5.518 9.28-9.405 18.81-9.405 8.903 0 16.427 3.135 22.32 9.53 6.02 6.27 9.03 14.045 9.03 23.2 0 9.153-3.01 16.928-9.03 23.324-5.893 6.27-13.417 9.405-22.32 9.405-9.53 0-16.93-3.888-18.81-9.405v32.478h-18.685zM793.451 110.1V22.696h18.685v31.852c2.508-5.517 9.28-9.029 17.681-9.029 14.923 0 23.45 9.781 23.45 26.209V110.1h-18.684V73.985c0-7.399-3.888-11.913-10.785-11.913s-11.662 5.141-11.662 12.54V110.1H793.45zM880.729 111.229l-26.46-64.33h19.437l16.804 42.134 17.054-42.135h19.437l-37.243 87.53H870.57z" fill="#614FE7"/></g></svg>
